<svg id="Layer_1" data-name="Layer 1" xmlns="http://www.w3.org/2000/svg" viewBox="0 0 80 80"><defs><style>.cls-1{fill:#f2695b;fill-rule:evenodd;}.cls-2{fill:#fff;}</style></defs><title>dobot_logo</title><path class="cls-1" d="M0,0H80V80H0V0Z"/><path class="cls-2" d="M20.48,56.28A4.47,4.47,0,0,1,16,51.81V37.26a4.51,4.51,0,0,1,4.47-4.52H21V23.32h4.47V51.81A4.47,4.47,0,0,1,21,56.28H20.48Zm0.78-4.47V37.26h-1V51.81h1Z"/><path class="cls-2" d="M26,37.23a4.49,4.49,0,0,1,4.47-4.57H31a4.49,4.49,0,0,1,4.47,4.57V51.78A4.5,4.5,0,0,1,31,56.39H30.47A4.54,4.54,0,0,1,26,51.87V37.23Zm5.26,14.55V37.23h-1V51.78h1Z"/><path class="cls-2" d="M36,51.81V23.27h4.47v9.47H41a4.47,4.47,0,0,1,4.47,4.47V51.9A4.41,4.41,0,0,1,41,56.28H40.45A4.47,4.47,0,0,1,36,51.81Zm5.25,0V37.21h-1v14.6h1Z"/><path class="cls-2" d="M46.21,37.21a4.49,4.49,0,0,1,4.47-4.57h0.52a4.49,4.49,0,0,1,4.47,4.57V51.76a4.5,4.5,0,0,1-4.47,4.62H50.69a4.54,4.54,0,0,1-4.47-4.52V37.21Zm5.22,14.55V37.21h-1V51.76h1Z"/><path class="cls-2" d="M56.2,27.74h4.23v5H64v4.47H60.43v14.6H64v4.47H60.43a4.23,4.23,0,0,1-4.23-4.43V27.74Z"/></svg>